<svg xmlns="http://www.w3.org/2000/svg" width="13.577" height="16.716" viewBox="0 0 13.577 16.716">
  <g id="delete" transform="translate(0.003 0.001)">
    <path id="Path_1" data-name="Path 1" d="M222.79,154.7a.391.391,0,0,0-.391.391v7.4a.391.391,0,1,0,.783,0v-7.4A.391.391,0,0,0,222.79,154.7Zm0,0" transform="translate(-213.695 -148.648)"/>
    <path id="Path_2" data-name="Path 2" d="M104.79,154.7a.391.391,0,0,0-.391.391v7.4a.391.391,0,1,0,.783,0v-7.4A.391.391,0,0,0,104.79,154.7Zm0,0" transform="translate(-100.314 -148.648)"/>
    <path id="Path_3" data-name="Path 3" d="M1.109,4.975v9.645a2.16,2.16,0,0,0,.574,1.49,1.928,1.928,0,0,0,1.4.6h7.407a1.927,1.927,0,0,0,1.4-.6,2.16,2.16,0,0,0,.574-1.49V4.975a1.5,1.5,0,0,0-.384-2.941h-2V1.545A1.538,1.538,0,0,0,8.523,0H5.047A1.538,1.538,0,0,0,3.5,1.545v.489h-2a1.5,1.5,0,0,0-.384,2.941Zm9.38,10.957H3.082a1.24,1.24,0,0,1-1.19-1.311V5.01h9.787v9.611A1.24,1.24,0,0,1,10.489,15.932ZM4.28,1.545A.754.754,0,0,1,5.047.782H8.523a.754.754,0,0,1,.767.763v.489H4.28ZM1.492,2.817H12.078a.7.7,0,0,1,0,1.409H1.492a.7.7,0,1,1,0-1.409Zm0,0" transform="translate(0 0)"/>
    <path id="Path_4" data-name="Path 4" d="M163.79,154.7a.391.391,0,0,0-.391.391v7.4a.391.391,0,1,0,.783,0v-7.4A.391.391,0,0,0,163.79,154.7Zm0,0" transform="translate(-157.005 -148.648)"/>
  </g>
</svg>
