<svg xmlns="http://www.w3.org/2000/svg" width="227.131" height="268.8" viewBox="0 0 227.131 268.8">
  <path id="XMLID_1006_" d="M100.772,25.136V170.847a44.778,44.778,0,0,0-17.052-3.293c-14.661,0-29.617,6.547-41.031,17.962-21.284,21.283-23.948,53.25-5.939,71.261C44.5,264.53,55.24,268.8,66.979,268.8c14.661,0,29.617-6.547,41.031-17.962,9.946-9.946,16.215-22.542,17.651-35.469a49.721,49.721,0,0,0,.3-5.49h.008V71.334L226.745,54.578v91.134a44.778,44.778,0,0,0-17.052-3.293c-14.661,0-29.617,6.547-41.031,17.962-21.284,21.283-23.948,53.25-5.939,71.26,7.753,7.753,18.489,12.023,30.229,12.023,14.661,0,29.617-6.547,41.031-17.962,9.946-9.946,16.215-22.542,17.651-35.469a49.724,49.724,0,0,0,.3-5.49h.008V0Z" transform="translate(-24.809)" fill="#9e3050" opacity="0.07"/>
</svg>
