<svg xmlns="http://www.w3.org/2000/svg" width="96.542" height="114.254" viewBox="0 0 96.542 114.254">
  <path id="XMLID_1006_" d="M57.1,10.684V72.619a19.033,19.033,0,0,0-7.248-1.4,25.093,25.093,0,0,0-17.44,7.635c-9.047,9.047-10.179,22.634-2.524,30.289a17.966,17.966,0,0,0,12.849,5.11,25.093,25.093,0,0,0,17.44-7.635,25.56,25.56,0,0,0,7.5-15.076,21.135,21.135,0,0,0,.127-2.333h0V30.321L110.642,23.2V61.935a19.033,19.033,0,0,0-7.248-1.4,25.093,25.093,0,0,0-17.44,7.635C76.907,77.217,75.775,90.8,83.429,98.459a17.966,17.966,0,0,0,12.849,5.11,25.093,25.093,0,0,0,17.44-7.635,25.56,25.56,0,0,0,7.5-15.076,21.136,21.136,0,0,0,.126-2.333h0V0Z" transform="translate(-24.809)" fill="#9e3050" opacity="0.07"/>
</svg>
